<svg width="18" height="18" viewBox="0 0 18 18" fill="none" xmlns="http://www.w3.org/2000/svg">
<g clip-path="url(#clip0)">
<path d="M11.121 6.87873C10.9747 6.73248 10.737 6.73248 10.5907 6.87873C10.4445 7.02498 10.4445 7.26348 10.5907 7.40899C11.0152 7.83351 11.25 8.39826 11.25 8.99975C11.25 10.2402 10.2405 11.2498 8.99996 11.2498C8.39847 11.2498 7.83372 11.0158 7.40921 10.5905C7.26296 10.4443 7.02519 10.4443 6.87894 10.5905C6.73269 10.736 6.73269 10.9745 6.87894 11.1208C7.44443 11.6878 8.19819 11.9998 8.99996 11.9998C10.6545 11.9998 12 10.6543 12 8.99978C12 8.19797 11.688 7.44422 11.121 6.87873Z" fill="#454545" fill-opacity="0.9"/>
<path d="M9.5228 6.05151C9.35254 6.02152 9.17855 5.99976 9.00006 5.99976C7.34557 5.99976 6.00006 7.34525 6.00006 8.99974C6.00006 9.17823 6.02182 9.35225 6.05255 9.52248C6.08479 9.70399 6.24306 9.83224 6.42081 9.83224C6.44257 9.83224 6.4643 9.83073 6.4868 9.82623C6.69004 9.79023 6.82655 9.59521 6.79055 9.39198C6.76731 9.26446 6.75005 9.13474 6.75005 8.99974C6.75005 7.75925 7.75957 6.74974 9.00006 6.74974C9.13506 6.74974 9.26482 6.767 9.3923 6.7895C9.59181 6.83 9.79055 6.68899 9.82655 6.48576C9.86255 6.28252 9.72608 6.08751 9.5228 6.05151Z" fill="#454545" fill-opacity="0.9"/>
<path d="M17.9109 8.75738C17.8261 8.65687 15.7974 6.28914 12.9991 4.8394C12.8176 4.74416 12.5889 4.81616 12.4936 5.00066C12.3984 5.18442 12.4704 5.4109 12.6549 5.50617C14.8104 6.62217 16.5324 8.36367 17.1211 8.99968C16.2271 9.96792 12.7089 13.4997 9.00016 13.4997C7.74168 13.4997 6.47342 13.1959 5.22917 12.5959C5.04467 12.5052 4.81893 12.5839 4.72893 12.7707C4.63819 12.9567 4.71694 13.1809 4.90369 13.2709C6.24993 13.9212 7.62844 14.2497 9.0002 14.2497C13.6209 14.2497 17.7384 9.44665 17.9117 9.2419C18.0301 9.10237 18.0294 8.89762 17.9109 8.75738Z" fill="#454545" fill-opacity="0.9"/>
<path d="M11.4603 4.18176C10.6068 3.89449 9.77885 3.74976 8.99958 3.74976C4.37882 3.74976 0.261331 8.55276 0.0880813 8.75751C-0.0214302 8.8865 -0.0304302 9.07402 0.0670931 9.21426C0.118843 9.28851 1.35859 11.0487 3.50734 12.476C3.57107 12.5188 3.64234 12.539 3.71434 12.539C3.8351 12.539 3.95435 12.4805 4.02635 12.3703C4.1411 12.1985 4.09385 11.9653 3.92134 11.8513C2.34335 10.802 1.26335 9.53527 0.859091 9.02002C1.72235 8.08251 5.26384 4.49978 8.99958 4.49978C9.69781 4.49978 10.4456 4.63179 11.2211 4.89202C11.4175 4.9625 11.6306 4.85377 11.6958 4.6565C11.7618 4.46002 11.6568 4.24778 11.4603 4.18176Z" fill="#454545" fill-opacity="0.9"/>
<path d="M15.6396 2.35993C15.4933 2.21368 15.2556 2.21368 15.1093 2.35993L2.35938 15.1099C2.21313 15.2562 2.21313 15.4939 2.35938 15.6402C2.43289 15.7129 2.52887 15.7497 2.62488 15.7497C2.72089 15.7497 2.81687 15.713 2.88964 15.6402L15.6396 2.89019C15.7858 2.74394 15.7858 2.50618 15.6396 2.35993Z" fill="#454545" fill-opacity="0.9"/>
</g>
<defs>
<clipPath id="clip0">
<rect width="18" height="18" fill="white"/>
</clipPath>
</defs>
</svg>
