<svg width="18" height="18" viewBox="0 0 18 18" fill="none" xmlns="http://www.w3.org/2000/svg">
<g clip-path="url(#clip0)">
<path d="M17.9336 8.78709C17.7918 8.58082 14.3853 3.75 9.0002 3.75C4.37937 3.75 0.261802 8.55309 0.0885492 8.75784C-0.0291909 8.89734 -0.0291909 9.10209 0.0885492 9.24233C0.261802 9.44709 4.37937 14.2502 9.0002 14.2502C13.621 14.2502 17.7386 9.44709 17.9118 9.24233C18.0206 9.11334 18.0303 8.92659 17.9336 8.78709ZM9.0002 13.5002C5.2959 13.5002 1.77383 9.96762 0.879085 9.00011C1.77235 8.03185 5.29067 4.50004 9.0002 4.50004C13.3345 4.50004 16.3938 8.02735 17.1408 8.97985C16.2783 9.91661 12.736 13.5002 9.0002 13.5002Z" fill="#454545" fill-opacity="0.9"/>
<path d="M8.99998 6C7.34546 6 5.99994 7.34552 5.99994 9.00003C5.99994 10.6545 7.34546 12.0001 8.99998 12.0001C10.6545 12.0001 12 10.6545 12 9.00003C12 7.34552 10.6545 6 8.99998 6ZM8.99998 11.2501C7.75947 11.2501 6.74994 10.2406 6.74994 9.00006C6.74994 7.75956 7.75947 6.75003 8.99998 6.75003C10.2405 6.75003 11.25 7.75956 11.25 9.00006C11.25 10.2406 10.2405 11.2501 8.99998 11.2501Z" fill="#454545" fill-opacity="0.9"/>
</g>
<defs>
<clipPath id="clip0">
<rect width="18" height="18" fill="white"/>
</clipPath>
</defs>
</svg>
