<svg width="18" height="18" viewBox="0 0 18 18" fill="none" xmlns="http://www.w3.org/2000/svg">
<path d="M15.3639 2.63605C13.6641 0.936141 11.4039 0 9 0C6.59605 0 4.33593 0.936106 2.63605 2.63602C0.936141 4.33589 0 6.59598 0 9C0 11.404 0.936106 13.6641 2.63602 15.364C4.33589 17.0639 6.59598 18 9 18C11.404 18 13.6641 17.0639 15.364 15.364C17.0639 13.6641 18 11.404 18 9C18 6.59598 17.0639 4.33593 15.3639 2.63605ZM9 16.9257C4.62976 16.9257 1.07427 13.3702 1.07427 9C1.07427 4.6298 4.62973 1.07427 9 1.07427C13.3703 1.07427 16.9257 4.62976 16.9257 9C16.9257 13.3702 13.3702 16.9257 9 16.9257Z" fill="#FF9797"/>
<path d="M9.00005 4.13037C8.7034 4.13037 8.46289 4.37087 8.46289 4.66752V11.4351C8.46289 11.7317 8.7034 11.9723 9.00005 11.9723C9.29674 11.9723 9.53721 11.7317 9.53721 11.4351V4.66752C9.53717 4.37084 9.29667 4.13037 9.00005 4.13037Z" fill="#FF9797"/>
<path d="M9.00006 12.7957C8.7191 12.7957 8.44994 13.0427 8.46291 13.3328C8.47599 13.6238 8.69892 13.87 9.00006 13.87C9.28103 13.87 9.55018 13.6229 9.53721 13.3328C9.52413 13.0418 9.30117 12.7957 9.00006 12.7957Z" fill="#FF9797"/>
</svg>
