<svg width="100" height="100" viewBox="0 0 100 100" fill="none" xmlns="http://www.w3.org/2000/svg">
    <path d="M56.4062 49.0625C67.1931 49.0625 75.9375 40.3181 75.9375 29.5312C75.9375 18.7444 67.1931 10 56.4062 10C45.6194 10 36.875 18.7444 36.875 29.5312C36.875 40.3181 45.6194 49.0625 56.4062 49.0625Z" fill="#FFFA8C"/>
    <path d="M75.9375 29.5312C75.9375 18.7617 67.1758 10 56.4062 10V49.0625C67.1758 49.0625 75.9375 40.3008 75.9375 29.5312Z" fill="#FFC178"/>
    <path d="M56.4062 44.375C64.6042 44.375 71.25 37.7292 71.25 29.5312C71.25 21.3333 64.6042 14.6875 56.4062 14.6875C48.2083 14.6875 41.5625 21.3333 41.5625 29.5312C41.5625 37.7292 48.2083 44.375 56.4062 44.375Z" fill="#FFC178"/>
    <path d="M71.25 29.5312C71.25 21.3464 64.5911 14.6875 56.4062 14.6875V44.375C64.5911 44.375 71.25 37.7161 71.25 29.5312Z" fill="#FF9D21"/>
    <path d="M58.6875 27.96C58.4155 27.8639 58.1383 27.7639 57.8609 27.6609V22.6123C58.3383 22.7883 58.5867 23.0275 58.6222 23.0636C59.1906 23.7048 60.1705 23.7689 60.8176 23.205C61.4683 22.6383 61.5364 21.6512 60.9695 21.0006C60.4503 20.4045 59.378 19.6577 57.8609 19.395V18.5938C57.8609 17.7309 57.1612 17.0312 56.2984 17.0312C55.4356 17.0312 54.7359 17.7309 54.7359 18.5938V19.5662C54.6397 19.5917 54.5425 19.6188 54.4445 19.6483C52.5925 20.2061 51.2094 21.7872 50.8348 23.7744C50.4912 25.598 51.0833 27.3623 52.38 28.3794C52.992 28.8595 53.738 29.2995 54.7359 29.757V36.3556C54.0297 36.2564 53.5008 36.017 52.6569 35.465C51.9347 34.9922 50.9662 35.1952 50.4939 35.9172C50.0216 36.6394 50.2237 37.6077 50.9461 38.0802C52.4286 39.05 53.4744 39.3908 54.7359 39.4998V40.4688C54.7359 41.3316 55.4356 42.0312 56.2984 42.0312C57.1612 42.0312 57.8609 41.3316 57.8609 40.4688V39.3497C60.4572 38.6911 62.1212 36.4734 62.4889 34.2867C62.9617 31.4736 61.4341 28.9309 58.6875 27.96ZM54.3084 25.9206C53.9389 25.6309 53.7809 25.0156 53.9058 24.3533C53.9962 23.8731 54.2591 23.3197 54.7358 22.9539V26.2216C54.582 26.123 54.4386 26.0227 54.3084 25.9206ZM59.407 33.7687C59.2647 34.6156 58.7397 35.5059 57.8608 36.0092V30.9903C59.5517 31.7025 59.5097 33.158 59.407 33.7687Z" fill="#FFFA8C"/>
    <path d="M58.6875 27.96C58.4155 27.8639 58.1383 27.7639 57.8609 27.6609V22.6123C58.3383 22.7883 58.5867 23.0275 58.6222 23.0636C59.1906 23.7048 60.1705 23.7689 60.8177 23.205C61.4683 22.6383 61.5364 21.6512 60.9695 21.0006C60.4503 20.4045 59.378 19.6576 57.8609 19.395V18.5937C57.8609 17.7673 57.2186 17.0923 56.4062 17.0367V42.0258C57.2186 41.9701 57.8609 41.2951 57.8609 40.4687V39.3497C60.4572 38.6911 62.1212 36.4734 62.4889 34.2867C62.9617 31.4736 61.4341 28.9309 58.6875 27.96ZM59.407 33.7687C59.2647 34.6156 58.7397 35.5059 57.8608 36.0092V30.9903C59.5517 31.7025 59.5097 33.1579 59.407 33.7687Z" fill="#FFC178"/>
    <path d="M85.7906 53.9764C83.2337 53.09 80.4989 53.8911 78.8241 56.0169L68.318 69.3516C66.9761 71.0546 64.9631 72.0313 62.795 72.0313H61.7969C65.42 72.0313 68.3747 69.1147 68.4366 65.5061C68.5002 61.7908 65.395 58.75 61.6791 58.75H45.12C39.5981 54.0522 31.5255 53.6642 25.5594 57.9257L22.8125 59.8877V85.3125H40.7812H65.3605C70.8045 85.3125 75.8795 82.6232 78.9362 78.1185L88.9202 63.4053C89.6266 62.3644 90 61.1491 90 59.8907C90 57.1842 88.3477 54.8627 85.7906 53.9764Z" fill="#FFD5B2"/>
    <path d="M85.7906 53.9764C83.2337 53.09 80.4989 53.8911 78.8241 56.0169L68.318 69.3516C66.9761 71.0546 64.9631 72.0313 62.795 72.0313H61.7969C65.42 72.0313 68.3747 69.1147 68.4366 65.5061C68.5002 61.7908 65.395 58.75 61.6791 58.75H50V85.3125H65.3605C70.8045 85.3125 75.8795 82.6232 78.9362 78.1185L88.9202 63.4053C89.6266 62.3644 90 61.1491 90 59.8907C90 57.1842 88.3477 54.8627 85.7906 53.9764Z" fill="#FAC394"/>
    <path d="M41.875 74.3751C41.875 75.6694 42.9244 76.7188 44.2188 76.7188H61.7969C68.0433 76.7188 73.125 71.6371 73.125 65.3907C73.125 64.7332 73.0655 64.0899 72.9575 63.4629L68.3178 69.3516C66.9759 71.0546 64.963 72.0313 62.7948 72.0313H61.7969H44.2188C42.9244 72.0313 41.875 73.0807 41.875 74.3751Z" fill="#FAC394"/>
    <path d="M68.3178 69.3516C66.9759 71.0546 64.963 72.0313 62.7948 72.0313H61.7969H50V76.7188H61.7969C68.0433 76.7188 73.125 71.6371 73.125 65.3907C73.125 64.7332 73.0655 64.0899 72.9575 63.4629L68.3178 69.3516Z" fill="#F0B47F"/>
    <path d="M21.7188 90H12.3438C11.0494 90 10 88.9507 10 87.6563V56.4063C10 55.1119 11.0494 54.0625 12.3438 54.0625H21.7188C23.0131 54.0625 24.0625 55.1119 24.0625 56.4063V87.6563C24.0625 88.9507 23.0131 90 21.7188 90Z" fill="#2CA52A" fill-opacity="0.75"/>
    <path d="M21.7188 90H12.3438C11.0494 90 10 88.9507 10 87.6563V72.0313H24.0625V87.6563C24.0625 88.9507 23.0131 90 21.7188 90Z" fill="#2CA52A"/>
</svg>
