<?xml version="1.0" standalone="no"?>
<!DOCTYPE svg PUBLIC "-//W3C//DTD SVG 20010904//EN"
 "http://www.w3.org/TR/2001/REC-SVG-20010904/DTD/svg10.dtd">
<svg version="1.0" xmlns="http://www.w3.org/2000/svg"
 width="600.000000pt" height="600.000000pt" viewBox="0 0 600.000000 600.000000"
 preserveAspectRatio="xMidYMid meet">
<metadata>
Created by potrace 1.11, written by Peter Selinger 2001-2013
</metadata>
<g transform="translate(0.000000,600.000000) scale(0.100000,-0.100000)"
fill="#000000" stroke="none">
<path d="M2665 4133 c-67 -9 -197 -44 -233 -62 -20 -10 -47 -30 -60 -44 -22
-24 -23 -31 -23 -178 1 -95 5 -155 12 -159 6 -4 81 -10 167 -14 386 -16 812
-91 1121 -198 97 -33 116 -37 128 -25 29 28 133 243 133 273 0 147 -420 356
-810 404 -80 9 -371 12 -435 3z"/>
<path d="M2070 3544 c-19 -2 -91 -9 -160 -15 -145 -13 -170 -20 -170 -49 0
-40 123 -79 390 -124 218 -37 201 -32 194 -64 -17 -70 -68 -156 -123 -205
-211 -192 -305 -308 -391 -482 -68 -138 -88 -206 -96 -325 -8 -112 8 -164 51
-168 38 -4 76 24 142 103 117 141 240 236 407 316 125 59 221 92 352 118 119
25 388 47 430 37 l29 -8 -67 -63 c-120 -111 -286 -173 -433 -161 -38 3 -102 8
-141 12 -81 7 -128 -10 -144 -52 -15 -38 -14 -43 40 -134 46 -77 105 -234 125
-330 4 -19 12 -38 18 -42 6 -3 64 20 129 53 423 213 849 272 1217 169 40 -11
76 -18 79 -15 15 15 -20 64 -81 114 -222 183 -289 451 -195 779 15 51 26 72
37 72 9 0 68 -7 131 -14 63 -8 176 -19 250 -26 195 -16 237 2 154 66 -96 72
-532 230 -859 310 -366 89 -639 124 -1015 129 -146 2 -281 1 -300 -1z m475
-260 c28 -3 53 -8 57 -11 5 -2 -1 -22 -12 -43 -67 -131 40 -300 189 -300 120
0 226 122 207 240 -8 49 -14 49 184 15 80 -14 148 -25 153 -25 27 0 -13 -211
-58 -300 l-24 -47 -163 5 c-462 14 -855 -119 -1152 -390 l-69 -62 7 39 c11 59
87 198 162 298 37 49 128 153 204 232 140 147 194 225 220 323 8 33 15 42 28
38 9 -3 40 -8 67 -12z"/>
</g>
</svg>
