<svg
        fill="none"
        height="20"
        viewBox="0 0 20 20"
        width="20"
        xmlns="http://www.w3.org/2000/svg"
>
    <mask fill="white" id="path-1-inside-1">
        <path d="M12.375 0L12.125 1.26582C15.875 2.27848 18.75 5.6962 18.75 9.87342C18.75 14.8101 14.875 18.7342 10 18.7342C5.125 18.7342 1.25 14.8101 1.25 9.87342C1.25 5.6962 4.125 2.27848 7.875 1.26582L7.625 0C3.25 1.13924 0 5.18987 0 9.87342C0 15.443 4.5 20 10 20C15.5 20 20 15.443 20 9.87342C20 5.18987 16.75 1.13924 12.375 0Z"/>
    </mask>
    <path
            d="M12.375 0L12.125 1.26582C15.875 2.27848 18.75 5.6962 18.75 9.87342C18.75 14.8101 14.875 18.7342 10 18.7342C5.125 18.7342 1.25 14.8101 1.25 9.87342C1.25 5.6962 4.125 2.27848 7.875 1.26582L7.625 0C3.25 1.13924 0 5.18987 0 9.87342C0 15.443 4.5 20 10 20C15.5 20 20 15.443 20 9.87342C20 5.18987 16.75 1.13924 12.375 0Z"
            fill="white"
    />
    <path
            d="M12.375 0L12.879 -1.93546L10.8243 -2.4705L10.4129 -0.387515L12.375 0ZM12.125 1.26582L10.1629 0.878308L9.80116 2.70993L11.6036 3.19666L12.125 1.26582ZM7.875 1.26582L8.39641 3.19666L10.1988 2.70993L9.8371 0.878308L7.875 1.26582ZM7.625 0L9.5871 -0.387515L9.17571 -2.4705L7.12101 -1.93546L7.625 0ZM10.4129 -0.387515L10.1629 0.878308L14.0871 1.65334L14.3371 0.387515L10.4129 -0.387515ZM11.6036 3.19666C14.5305 3.98705 16.75 6.65015 16.75 9.87342H20.75C20.75 4.74226 17.2195 0.569913 12.6464 -0.665015L11.6036 3.19666ZM16.75 9.87342C16.75 13.7293 13.7468 16.7342 10 16.7342V20.7342C16.0032 20.7342 20.75 15.8909 20.75 9.87342H16.75ZM10 16.7342C6.25321 16.7342 3.25 13.7293 3.25 9.87342H-0.75C-0.75 15.8909 3.99679 20.7342 10 20.7342V16.7342ZM3.25 9.87342C3.25 6.65015 5.4695 3.98705 8.39641 3.19666L7.35359 -0.665015C2.7805 0.569913 -0.75 4.74226 -0.75 9.87342H3.25ZM9.8371 0.878308L9.5871 -0.387515L5.6629 0.387515L5.9129 1.65334L9.8371 0.878308ZM7.12101 -1.93546C1.8814 -0.571075 -2 4.2625 -2 9.87342H2C2 6.11725 4.6186 2.84956 8.12899 1.93546L7.12101 -1.93546ZM-2 9.87342C-2 16.5238 3.37179 22 10 22V18C5.62821 18 2 14.3623 2 9.87342H-2ZM10 22C16.6282 22 22 16.5238 22 9.87342H18C18 14.3623 14.3718 18 10 18V22ZM22 9.87342C22 4.2625 18.1186 -0.571075 12.879 -1.93546L11.871 1.93546C15.3814 2.84956 18 6.11725 18 9.87342H22Z"
            fill="white"
            mask="url(#path-1-inside-1)"
    />
</svg>