<svg width="12" height="12" viewBox="0 0 12 12" fill="none" xmlns="http://www.w3.org/2000/svg">
<g clip-path="url(#clip0)">
<path d="M1.14185 1.83449C0.954346 1.64699 0.954346 1.33493 1.14185 1.14087C1.3359 0.953369 1.64141 0.953369 1.83546 1.14087L5.99762 5.31001L10.1668 1.14087C10.3543 0.953369 10.6663 0.953369 10.8534 1.14087C11.0474 1.33493 11.0474 1.64743 10.8534 1.83449L6.69123 5.99708L10.8534 10.1662C11.0474 10.3537 11.0474 10.6658 10.8534 10.8598C10.6659 11.0473 10.3538 11.0473 10.1668 10.8598L5.99762 6.6907L1.83546 10.8598C1.64141 11.0473 1.3359 11.0473 1.14185 10.8598C0.954346 10.6658 0.954346 10.3533 1.14185 10.1662L5.304 5.99708L1.14185 1.83449Z" fill="#FF6B6B"/>
</g>
<defs>
<clipPath id="clip0">
<rect width="10" height="10" fill="white" transform="translate(1 1)"/>
</clipPath>
</defs>
</svg>
