<svg width="14" height="14" viewBox="0 0 14 14" fill="none" xmlns="http://www.w3.org/2000/svg">
    <path d="M0.522461 1.44599C0.272461 1.19599 0.272461 0.779905 0.522461 0.521164C0.781202 0.271164 1.18855 0.271164 1.44729 0.521164L6.99682 6.08002L12.5557 0.521164C12.8057 0.271164 13.2218 0.271164 13.4712 0.521164C13.7299 0.779905 13.7299 1.19657 13.4712 1.44599L7.92165 6.99611L13.4712 12.555C13.7299 12.805 13.7299 13.2211 13.4712 13.4798C13.2212 13.7298 12.8051 13.7298 12.5557 13.4798L6.99682 7.92093L1.44729 13.4798C1.18855 13.7298 0.781202 13.7298 0.522461 13.4798C0.272461 13.2211 0.272461 12.8044 0.522461 12.555L6.072 6.99611L0.522461 1.44599Z" fill="#454545" fill-opacity="0.6"/>
</svg>
